<svg xmlns="http://www.w3.org/2000/svg" width="23" height="22" fill="none" viewBox="0 0 23 22">
  <g clip-path="url(#a)">
    <path fill="#000" fill-rule="evenodd" d="M20.753 5.5v8.8a2.2 2.2 0 0 1-2.2 2.2h-5.5l-5.5 4.4v-4.4h-2.2a2.2 2.2 0 0 1-2.2-2.2V5.5a2.2 2.2 0 0 1 2.2-2.2h13.2a2.2 2.2 0 0 1 2.2 2.2Zm-12.1 3.3h-2.2V11h2.2V8.8Zm2.2 0h2.2V11h-2.2V8.8Zm6.6 0h-2.2V11h2.2V8.8Z" clip-rule="evenodd"/>
  </g>
  <defs>
    <clipPath id="a">
      <path fill="#fff" d="M0 0h22v22H0z" transform="translate(.953)"/>
    </clipPath>
  </defs>
</svg>
