<svg xmlns="http://www.w3.org/2000/svg" width="24" height="23" fill="none" viewBox="0 0 24 23">
  <g clip-path="url(#a)">
    <path stroke="#707070" stroke-linecap="round" stroke-linejoin="round" stroke-width="1.917" d="M4.333 5.75A1.917 1.917 0 0 1 6.25 3.833h1.917a1.917 1.917 0 0 1 1.916 1.917v1.917a1.917 1.917 0 0 1-1.916 1.916H6.25a1.917 1.917 0 0 1-1.917-1.916V5.75Zm9.584 0a1.917 1.917 0 0 1 1.916-1.917h1.917a1.917 1.917 0 0 1 1.917 1.917v1.917a1.917 1.917 0 0 1-1.917 1.916h-1.917a1.917 1.917 0 0 1-1.916-1.916V5.75Zm-9.584 9.583a1.916 1.916 0 0 1 1.917-1.916h1.917a1.916 1.916 0 0 1 1.916 1.916v1.917a1.917 1.917 0 0 1-1.916 1.917H6.25a1.917 1.917 0 0 1-1.917-1.917v-1.917Zm9.584 0a1.917 1.917 0 0 1 1.916-1.916h1.917a1.917 1.917 0 0 1 1.917 1.916v1.917a1.917 1.917 0 0 1-1.917 1.917h-1.917a1.917 1.917 0 0 1-1.916-1.917v-1.917Z"/>
  </g>
  <defs>
    <clipPath id="a">
      <path fill="#fff" d="M0 0h23v23H0z" transform="translate(.5)"/>
    </clipPath>
  </defs>
</svg>
