<svg xmlns="http://www.w3.org/2000/svg" width="22" height="22" fill="none" viewBox="0 0 22 22">
  <g clip-path="url(#a)">
    <path fill="#000" d="M2.2 11.55a1.65 1.65 0 1 1 3.3 0v6.6a1.65 1.65 0 0 1-3.3 0v-6.6Zm4.4-.184v5.973a2.2 2.2 0 0 0 1.217 1.97l.055.027c.61.305 1.283.464 1.965.464h5.958a2.2 2.2 0 0 0 2.158-1.769l1.32-6.6A2.2 2.2 0 0 0 17.116 8.8H13.2V4.4A2.2 2.2 0 0 0 11 2.2a1.1 1.1 0 0 0-1.1 1.1v.734a4.4 4.4 0 0 1-.88 2.64L7.48 8.726a4.4 4.4 0 0 0-.88 2.64Z"/>
  </g>
  <defs>
    <clipPath id="a">
      <path fill="#fff" d="M0 0h22v22H0z"/>
    </clipPath>
  </defs>
</svg>
