<svg xmlns="http://www.w3.org/2000/svg" width="23" height="23" fill="none" viewBox="0 0 23 23">
  <g clip-path="url(#a)">
    <path stroke="#707070" stroke-linecap="round" stroke-linejoin="round" stroke-width="1.917" d="M9.895 4.137c.408-1.683 2.802-1.683 3.21 0a1.652 1.652 0 0 0 2.466 1.022c1.479-.901 3.172.791 2.271 2.271a1.653 1.653 0 0 0 1.02 2.465c1.684.408 1.684 2.802 0 3.21a1.652 1.652 0 0 0-1.02 2.466c.9 1.479-.792 3.172-2.272 2.271a1.653 1.653 0 0 0-2.465 1.02c-.408 1.684-2.802 1.684-3.21 0a1.652 1.652 0 0 0-2.466-1.02c-1.479.9-3.172-.792-2.271-2.272a1.652 1.652 0 0 0-1.02-2.465c-1.684-.408-1.684-2.802 0-3.21a1.652 1.652 0 0 0 1.02-2.466c-.9-1.479.792-3.172 2.272-2.271.954.582 2.2.067 2.465-1.02Z"/>
    <path stroke="#707070" stroke-linecap="round" stroke-linejoin="round" stroke-width="1.917" d="M14.375 11.5a2.875 2.875 0 1 1-5.75 0 2.875 2.875 0 0 1 5.75 0Z"/>
  </g>
  <defs>
    <clipPath id="a">
      <path fill="#fff" d="M0 0h23v23H0z"/>
    </clipPath>
  </defs>
</svg>
